<?xml version="1.0" encoding="UTF-8"?>
<svg xmlns="http://www.w3.org/2000/svg" viewBox="0 0 567.88 757.17">
  <g id="Bagpack">
    <g>
      <rect x="456.3" y="480.52" width="82.3" height="114.48" rx="25.5" ry="25.5" style="fill: #d23f00;"/>
      <path d="M513.1,596.01h-31.3c-14.61,0-26.5-11.89-26.5-26.5v-63.49c0-14.61,11.89-26.5,26.5-26.5h31.3c14.61,0,26.5,11.89,26.5,26.5v63.49c0,14.61-11.89,26.5-26.5,26.5ZM481.8,481.52c-13.51,0-24.5,10.99-24.5,24.5v63.49c0,13.51,10.99,24.5,24.5,24.5h31.3c13.51,0,24.5-10.99,24.5-24.5v-63.49c0-13.51-10.99-24.5-24.5-24.5h-31.3Z"/>
    </g>
    <g>
      <rect x="466.6" y="555.2" width="61.71" height="29.52" rx="14.09" ry="14.09" style="fill: #df880b;"/>
      <path d="M514.23,585.22h-33.54c-8.04,0-14.59-6.54-14.59-14.59v-1.34c0-8.04,6.54-14.59,14.59-14.59h33.54c8.04,0,14.59,6.54,14.59,14.59v1.34c0,8.04-6.54,14.59-14.59,14.59ZM480.69,555.7c-7.49,0-13.59,6.09-13.59,13.59v1.34c0,7.49,6.09,13.59,13.59,13.59h33.54c7.49,0,13.59-6.09,13.59-13.59v-1.34c0-7.49-6.09-13.59-13.59-13.59h-33.54Z"/>
    </g>
    <path d="M531.48,513.64l-1-.04c.19-4.12-.6-10.14-5.42-15.37-5.52-6.01-14.82-9.31-27.63-9.81-10.91-.43-20.11,2.43-25.9,8.05-4.5,4.37-6.74,10.14-6.67,17.15h-1c-.07-7.29,2.27-13.3,6.97-17.87,5.98-5.81,15.45-8.77,26.63-8.33,13.09.51,22.62,3.92,28.33,10.13,3.94,4.28,5.95,10,5.68,16.09Z"/>
    <g>
      <path d="M518.02,476.09c0,2.71-2.2,4.91-4.91,4.91h-29.97c-2.71,0-4.91-2.2-4.91-4.91v-1.38c0-2.71,2.2-4.91,4.91-4.91,9.4-3.88,19.39-3.88,29.97,0h0c2.71,0,4.91,2.2,4.91,4.91v1.38Z" style="fill: #fcffee;"/>
      <path d="M513.11,482h-29.97c-3.26,0-5.91-2.65-5.91-5.91v-1.38c0-3.19,2.54-5.8,5.71-5.91,9.5-3.86,19.71-3.86,30.36,0,3.18.1,5.73,2.71,5.73,5.91v1.38c0,3.26-2.65,5.91-5.91,5.91ZM483.14,470.79c-2.16,0-3.91,1.76-3.91,3.91v1.38c0,2.16,1.76,3.91,3.91,3.91h29.97c2.16,0,3.91-1.76,3.91-3.91v-1.38c0-2.16-1.76-3.91-3.91-3.91h-.18l-.17-.06c-10.29-3.77-20.12-3.77-29.24-.01l-.18.08h-.2Z"/>
    </g>
    <g>
      <rect x="458.55" y="510.23" width="5.97" height="2.27"/>
      <path d="M465.02,513h-6.97v-3.27h6.97v3.27ZM459.05,512h4.97v-1.27h-4.97v1.27Z"/>
    </g>
    <rect x="478.23" y="561.41" width="39.8" height="1"/>
    <g>
      <rect x="480.02" y="561.91" width="2.01" height="4.25"/>
      <path d="M482.53,566.66h-3.01v-5.25h3.01v5.25ZM480.52,565.66h1.01v-3.25h-1.01v3.25Z"/>
    </g>
    <g>
      <path d="M504.61,574.88h14.98c0,2.96-2.4,5.37-5.37,5.37h-9.61v-5.37h0Z" style="fill: #df0d0b;"/>
      <path d="M514.23,580.75h-10.12v-6.37h15.98v.5c0,3.23-2.63,5.87-5.87,5.87ZM505.11,579.75h9.12c2.51,0,4.59-1.92,4.84-4.37h-13.96v4.37Z"/>
    </g>
  </g>
  <g id="Pants">
    <g>
      <path d="M341.78,573.65l23.74.79c.36.01.73-.02,1.08-.1,8.4-1.88,12.25-3.31,15.31-5.88l1.96-1.65c1.56-1.31,2.4-3.29,2.25-5.33l-5.71-79.19,8.08,83.65c.26,2.68,2.51,4.72,5.2,4.72h22.99c2.8,0,4.95-2.49,4.54-5.26,10.43-44.07,4.65-85.63-18.33-124.55-.25-1.67-1.73-2.87-3.41-2.76l-47.66,3.16-1.31,6.71-13.33,120.06c-.28,2.82,1.77,5.34,4.59,5.63Z" style="fill: #e96e0c;"/>
      <path d="M365.65,574.94c-.05,0-.1,0-.15,0l-23.78-.79c-3.08-.32-5.34-3.09-5.04-6.18l13.33-120.06,1.39-7.12,48.04-3.19c1.9-.14,3.6,1.22,3.93,3.08,22.66,38.42,28.84,80.39,18.36,124.75.18,1.43-.25,2.88-1.2,3.97-.97,1.12-2.37,1.76-3.85,1.76h-22.99c-2.96,0-5.41-2.22-5.7-5.17l-4.14-42.85,2.76,38.31c.16,2.19-.75,4.34-2.43,5.75l-1.96,1.65c-3.08,2.59-6.85,4.04-15.52,5.98-.34.08-.7.12-1.05.12ZM341.81,573.15l23.73.79c.31.02.64-.02.95-.09,8.48-1.9,12.15-3.3,15.09-5.77l1.96-1.65c1.44-1.21,2.21-3.04,2.08-4.91l-5.71-79.19,1-.08,8.08,83.65c.23,2.43,2.26,4.27,4.7,4.27h22.99c1.19,0,2.32-.52,3.09-1.42.78-.9,1.12-2.09.95-3.27v-.09s0-.09,0-.09c10.46-44.16,4.31-85.94-18.27-124.18l-.06-.18c-.21-1.4-1.49-2.42-2.89-2.33l-47.27,3.13-1.23,6.33-13.33,120.02c-.25,2.53,1.6,4.8,4.13,5.08Z"/>
    </g>
    <path d="M369.76,453.6l-.16-.16c-1.56-1.63-1.96-4.32-1.23-8.19h0c.61-3.23,3.52-5.38,4.35-5.37l.19.04c.55.24,2.57,3.54,1.59,6.75-.63,2.06-2.33,6.85-4.52,6.93h-.22ZM372.55,440.94c-.71.34-2.72,2.02-3.19,4.49h0c-.63,3.38-.37,5.71.8,7.12.98-.35,2.37-2.85,3.39-6.18.73-2.39-.54-4.77-1-5.43Z"/>
    <path d="M380.95,454.11c-2.17,0-4.07-2.81-5.65-5.16-.2-.3-.4-.59-.59-.88h0c-2.08-3.02-2.14-6.87-1.53-7.56l.08-.09.11-.04c.83-.34,4.45,1.11,6.53,4.13.26.37.53.75.8,1.14,2.01,2.82,4.29,6.02,1.86,7.94-.55.36-1.08.52-1.6.52ZM375.53,447.51c.2.29.4.58.6.88,2.18,3.23,3.99,5.61,5.84,4.38,1.53-1.21.1-3.47-2.09-6.54-.28-.39-.55-.78-.81-1.16-1.68-2.45-4.33-3.58-5.19-3.73-.16.79-.07,3.67,1.65,6.17h0Z"/>
    <path d="M331.43,580.12c-.12,0-.2,0-.22-.01l.14-.99s3.56.31,6.33-7.56l.94.33c-2.71,7.7-6.27,8.23-7.19,8.23Z"/>
    <g>
      <rect x="328.78" y="579.23" width="2.56" height="3.73" transform="translate(388.34 -84.65) rotate(34.6)"/>
      <path d="M330.18,584.05l-2.93-2.02,2.69-3.9,2.93,2.02-2.69,3.9ZM328.64,581.78l1.28.89,1.55-2.25-1.29-.89-1.55,2.25Z"/>
    </g>
    <path d="M423.71,573.8l-.84-.55s1.09-1.9-1.97-5.31l.74-.67c3.62,4.03,2.13,6.42,2.07,6.52Z"/>
    <g>
      <rect x="421.81" y="573.92" width="2.56" height="3.73" transform="translate(40.83 -27.88) rotate(3.97)"/>
      <path d="M424.71,578.27l-3.55-.25.33-4.72,3.55.25-.33,4.72ZM422.22,577.09l1.56.11.19-2.73-1.56-.11-.19,2.73Z"/>
    </g>
  </g>
  <g id="feets">
    <g>
      <rect x="345.21" y="574.27" width="22.14" height="7.9" rx="2.2" ry="2.2" style="fill: #fff5c4;"/>
      <path d="M365.15,582.67h-17.74c-1.49,0-2.7-1.21-2.7-2.7v-3.5c0-1.49,1.21-2.7,2.7-2.7h17.74c1.49,0,2.7,1.21,2.7,2.7v3.5c0,1.49-1.21,2.7-2.7,2.7ZM347.4,574.77c-.94,0-1.7.76-1.7,1.7v3.5c0,.94.76,1.7,1.7,1.7h17.74c.94,0,1.7-.76,1.7-1.7v-3.5c0-.94-.76-1.7-1.7-1.7h-17.74Z"/>
    </g>
    <g>
      <path d="M365.93,582.17l6.61,13.56c.77,1.57-.3,3.43-2.04,3.55l-57.2,4.19c-1.14.08-2.19-.62-2.54-1.71h0c-.38-1.17.17-2.45,1.27-2.98l34.13-16.6" style="fill: #d23f00;"/>
      <path d="M313.11,603.97c-1.29,0-2.43-.82-2.83-2.07-.45-1.4.21-2.94,1.53-3.59l34.13-16.6.44.9-34.13,16.6c-.88.43-1.32,1.45-1.02,2.38.28.87,1.13,1.44,2.02,1.37l57.21-4.19c.66-.05,1.24-.41,1.57-.98.33-.58.36-1.25.06-1.85l-6.61-13.56.9-.44,6.61,13.56c.43.89.4,1.93-.1,2.79-.49.86-1.38,1.41-2.36,1.48l-57.2,4.19c-.07,0-.15,0-.22,0Z"/>
    </g>
    <g>
      <path d="M371.67,598.89l-.39,2.73c-.27,1.88-1.83,3.32-3.73,3.42l-50.82,2.86c-1.76.1-3.42-.8-4.3-2.32l-1.18-2.97" style="fill: #fff;"/>
      <path d="M316.46,608.41c-1.84,0-3.53-.97-4.46-2.58l-1.21-3.04.93-.37,1.18,2.97c.76,1.3,2.22,2.08,3.8,2.01l50.82-2.86c1.66-.09,3.03-1.35,3.27-2.99l.39-2.73.99.14-.39,2.73c-.3,2.11-2.07,3.73-4.2,3.85l-50.82,2.86c-.1,0-.2,0-.3,0Z"/>
    </g>
    <polygon points="326.71 596.89 319.78 595.44 319.99 594.46 325.71 595.66 325.71 592.25 330.78 592.92 330.78 589.12 335.09 590.54 334.72 587.2 339.13 588.91 337.71 586.3 338.59 585.83 341.32 590.83 335.9 588.73 336.26 591.98 331.78 590.5 331.78 594.06 326.71 593.39 326.71 596.89"/>
    <path d="M347.8,592.19c-.63,0-1.21-.4-1.69-.73-.21-.14-.41-.29-.6-.38l-.18-.1c-.09-.06-6.78-4.26-6.12-5.44.29-.51.66-.67,5.14,1.64.37.19.98.38,1.62.57,1.53.47,3.12.96,3.54,1.98.12.28.19.74-.12,1.29-.35.63-.76,1-1.26,1.12-.11.03-.22.04-.33.04ZM345.95,590.18c.24.12.49.29.72.45.42.29.9.62,1.23.54.25-.06.47-.37.61-.63.14-.26.09-.39.07-.44-.24-.58-1.78-1.06-2.9-1.4-.69-.21-1.33-.41-1.78-.64-1.23-.63-2.1-1.05-2.71-1.32,1.33,1.09,3.52,2.67,4.64,3.37l.11.06Z"/>
    <g>
      <path d="M396.7,579.92l16.63-1.04c1.51-.09,2.65-1.39,2.56-2.9l-.15-2.42c-.09-1.51-1.39-2.65-2.9-2.56l-16-.42c-1.51.09-3.29,2.85-3.2,4.36l.15,2.42c.09,1.51,1.39,2.65,2.9,2.56Z" style="fill: #fff5c4;"/>
      <path d="M396.53,580.42c-1.69,0-3.12-1.32-3.23-3.03l-.15-2.42c-.11-1.79,1.87-4.78,3.66-4.89l16.04.42c.82-.05,1.65.23,2.3.8.65.57,1.04,1.36,1.09,2.22l.15,2.42c.11,1.78-1.25,3.32-3.03,3.43l-16.63,1.04c-.07,0-.14,0-.21,0ZM396.83,571.07c-.48.03-1.18.58-1.78,1.44-.58.83-.95,1.79-.91,2.39l.15,2.42c.08,1.23,1.14,2.18,2.37,2.09l16.63-1.04c.6-.04,1.14-.3,1.54-.75.4-.45.59-1.02.55-1.62l-.15-2.42c-.04-.6-.3-1.14-.75-1.54-.45-.4-1.03-.59-1.62-.55l-16.04-.42Z"/>
    </g>
    <g>
      <path d="M395.38,580l-5.75,13.95c-.67,1.62.51,3.4,2.26,3.42l57.35.61c1.14.01,2.15-.76,2.43-1.87h0c.3-1.19-.32-2.43-1.46-2.9l-35.1-14.44" style="fill: #df880b;"/>
      <path d="M449.27,598.48h-.03l-57.35-.61c-.99-.01-1.91-.51-2.45-1.33-.54-.82-.65-1.86-.27-2.78l5.75-13.95.92.38-5.75,13.95c-.25.62-.19,1.29.18,1.84.37.56.96.88,1.63.89l57.35.61h.02c.91,0,1.69-.61,1.92-1.49.24-.95-.26-1.94-1.16-2.31l-35.1-14.45.38-.92,35.1,14.44c1.36.56,2.11,2.06,1.75,3.48-.34,1.33-1.52,2.24-2.88,2.24Z"/>
    </g>
    <g>
      <path d="M390.7,597.05l.56,2.7c.39,1.86,2.04,3.19,3.94,3.18l50.9-.32c1.76-.01,3.36-1.01,4.14-2.59l1-3.04" style="fill: #fff;"/>
      <path d="M395.17,603.43c-2.12,0-3.97-1.5-4.4-3.58l-.56-2.7.98-.2.56,2.7c.34,1.62,1.77,2.78,3.42,2.78h.02l50.9-.31c1.58,0,3-.89,3.7-2.31l.97-2.97.95.31-1,3.04c-.9,1.82-2.66,2.92-4.62,2.93l-50.9.31h-.03Z"/>
    </g>
    <polygon points="435.45 592.25 435.23 588.76 430.21 589.74 429.98 586.19 425.61 587.95 425.77 584.68 420.49 587.11 422.9 581.95 423.81 582.37 422.55 585.06 426.85 583.08 426.68 586.44 430.9 584.75 431.13 588.54 436.16 587.55 436.37 590.96 442 589.41 442.27 590.37 435.45 592.25"/>
    <path d="M414.01,588.87c-.08,0-.16,0-.24-.02-.5-.09-.94-.42-1.33-1.04-.34-.54-.3-.99-.2-1.28.35-1.05,1.9-1.63,3.4-2.2.63-.24,1.22-.46,1.58-.67,4.34-2.59,4.71-2.45,5.03-1.96.74,1.13-5.68,5.75-5.74,5.79l-.19.12c-.18.1-.38.26-.58.41-.48.38-1.07.84-1.74.84ZM420.36,583.03c-.59.31-1.43.78-2.62,1.49-.43.26-1.07.5-1.74.75-1.1.41-2.61.98-2.81,1.58-.02.05-.06.18.1.43.16.24.39.54.65.59.34.06.79-.3,1.19-.62.23-.18.46-.36.7-.49l.13-.08c1.06-.76,3.15-2.47,4.4-3.64Z"/>
  </g>
  <g id="Hands">
    <g>
      <path d="M279.26,396.14c.09.02.18.04.26.07,1.98.47,4.05-.26,5.41-1.77l9.32-10.36c.96-1.07.89-2.72-.17-3.69l-12.3-11.31-6.45,4.54c-8.74,6.15-6.42,19.87,3.93,22.52Z" style="fill: #fff5c4;"/>
      <path d="M280.74,396.85c-.45,0-.89-.05-1.33-.16l-.27-.07c-4.92-1.26-8.54-5.17-9.46-10.21-.94-5.15,1.12-10.21,5.37-13.21l6.78-4.77,12.6,11.58c1.25,1.15,1.35,3.12.21,4.39l-9.32,10.36c-1.21,1.34-2.88,2.08-4.57,2.08ZM279.38,395.65l.26.06c1.75.42,3.64-.2,4.92-1.62l9.32-10.35c.78-.86.71-2.2-.14-2.99l-12.01-11.04-6.12,4.31c-3.93,2.77-5.84,7.45-4.96,12.21.85,4.65,4.2,8.26,8.73,9.42h0Z"/>
    </g>
    <g>
      <path d="M417.17,418.75c.08-.04.16-.07.24-.11,1.79-.84,2.85-2.55,2.86-4.37l.08-12.48c0-1.29-1.25-.61-2.69-.65l-16.6-2.2-1.8,6.86c-2.84,8.54,9.22,16.84,17.9,12.96Z" style="fill: #fff5c4;"/>
      <path d="M412.42,420.22c-3.58,0-7.34-1.4-10.21-4-3.34-3.02-4.62-6.98-3.42-10.59l1.9-7.25,17.03,2.26c.33.01.7-.04,1.05-.08.68-.08,1.27-.16,1.7.22.25.23.38.56.37,1.01l-.08,12.48c-.01,2.07-1.22,3.92-3.15,4.83l-.25.11c-1.52.68-3.21,1.01-4.95,1.01ZM401.44,399.49l-1.69,6.43c-1.1,3.3.05,6.77,3.13,9.56,3.97,3.59,9.76,4.75,14.08,2.81h0s.23-.11.23-.11c1.58-.74,2.56-2.24,2.57-3.92l.08-12.48c0-.2-.04-.26-.04-.26-.1-.07-.6,0-.91.03-.37.05-.79.1-1.25.08l-16.21-2.15Z"/>
    </g>
  </g>
  <g id="Head">
    <g>
      <circle cx="385.71" cy="215.43" r="73.24" style="fill: #fff5c4;"/>
      <path d="M385.71,289.16c-40.66,0-73.74-33.08-73.74-73.74s33.08-73.74,73.74-73.74,73.74,33.08,73.74,73.74-33.08,73.74-73.74,73.74ZM385.71,142.69c-40.11,0-72.74,32.63-72.74,72.74s32.63,72.74,72.74,72.74,72.74-32.63,72.74-72.74-32.63-72.74-72.74-72.74Z"/>
    </g>
    <g>
      <ellipse cx="341.1" cy="221.65" rx="11.74" ry="12.11" style="fill: #fff5cf;"/>
      <path d="M341.1,234.76c-7.03,0-12.74-5.88-12.74-13.11s5.72-13.11,12.74-13.11,12.75,5.88,12.75,13.11-5.72,13.11-12.75,13.11ZM341.1,210.54c-5.92,0-10.74,4.99-10.74,11.11s4.82,11.11,10.74,11.11,10.75-4.99,10.75-11.11-4.82-11.11-10.75-11.11Z"/>
    </g>
    <g>
      <ellipse cx="373.96" cy="237.8" rx="11.74" ry="12.11" style="fill: #fff5cf;"/>
      <path d="M373.96,250.91c-7.03,0-12.75-5.88-12.75-13.11s5.72-13.11,12.75-13.11,12.74,5.88,12.74,13.11-5.72,13.11-12.74,13.11ZM373.96,226.69c-5.92,0-10.75,4.99-10.75,11.11s4.82,11.11,10.75,11.11,10.74-4.99,10.74-11.11-4.82-11.11-10.74-11.11Z"/>
    </g>
    <g>
      <ellipse cx="338.2" cy="225.69" rx="2.9" ry="2.48"/>
      <path d="M338.2,229.17c-2.15,0-3.9-1.56-3.9-3.48s1.75-3.48,3.9-3.48,3.9,1.56,3.9,3.48-1.75,3.48-3.9,3.48ZM338.2,224.2c-1.05,0-1.9.67-1.9,1.48s.85,1.48,1.9,1.48,1.9-.67,1.9-1.48-.85-1.48-1.9-1.48Z"/>
    </g>
    <g>
      <circle cx="369.65" cy="241.51" r="2.78"/>
      <path d="M369.65,244.8c-1.81,0-3.29-1.47-3.29-3.28s1.47-3.28,3.29-3.28,3.28,1.47,3.28,3.28-1.47,3.28-3.28,3.28ZM369.65,239.23c-1.26,0-2.29,1.02-2.29,2.28s1.03,2.28,2.29,2.28,2.28-1.02,2.28-2.28-1.02-2.28-2.28-2.28Z"/>
    </g>
    <path d="M362.1,214.05l-.05-.22c-.91-4.33-2.13-10.07-7.21-12.84-2.83-1.54-6.87-2.16-12.72-1.11l-.18-.98c17.32-3.13,19.68,8.05,21.09,14.73l.05.22-.98.21Z"/>
    <path d="M391.98,231.89l-.04-.22c-1.42-6.73-3.56-16.91-19.93-13.95l-.18-.98c17.33-3.13,19.68,8.05,21.09,14.73l.04.21-.98.21Z"/>
    <path d="M342.11,259.3l-.48-.83c-1.59-2.78-3.9-5.07-6.69-6.63l-2.67-1.49.49-.87,2.67,1.49c2.95,1.65,5.4,4.07,7.07,7.01l.48.83-.87.5Z"/>
    <path d="M355.61,171.73l-.77-.63,5.67-6.9c6.17-7.5,14.8-13.43,24.98-17.14l2.94-1.07.34.94-2.94,1.07c-10,3.65-18.49,9.47-24.54,16.83l-5.67,6.9Z"/>
    <path d="M369.4,176.88l-.77-.63,5.67-6.9c6.17-7.5,14.8-13.43,24.98-17.14l2.94-1.07.34.94-2.94,1.07c-10,3.65-18.49,9.47-24.54,16.83l-5.67,6.9Z"/>
    <path d="M384.77,179.48l-.77-.63,5.67-6.9c6.17-7.5,14.8-13.43,24.98-17.14l2.94-1.07.34.94-2.94,1.07c-10,3.65-18.49,9.47-24.54,16.83l-5.67,6.9Z"/>
    <path d="M395.46,189.36l-.77-.63,5.67-6.9c6.17-7.5,14.8-13.43,24.98-17.14l2.94-1.07.34.94-2.94,1.07c-10,3.65-18.49,9.47-24.54,16.83l-5.67,6.9Z"/>
    <g>
      <path d="M402.42,442.64h-14.27l-5.41,1.66c-1.05.32-2.16.42-3.25.29l-16.38-1.95-4.53,1.32c-.84.24-1.73.24-2.56-.02l-6.16-1.93c-.41-.04-.82-.04-1.23,0l-5.53.62c-.64,0-1.16-.52-1.16-1.16v-.07c0-5.79,4.69-10.48,10.48-10.48h40.75c5.79,0,10.48,4.69,10.48,10.48h0c0,.68-.55,1.24-1.24,1.24Z" style="fill: #fff;"/>
      <path d="M380.43,445.14c-.33,0-.66-.02-1-.06l-16.28-1.94-4.43,1.29c-.94.28-1.92.26-2.85-.03l-6.11-1.91c-.36-.03-.72-.03-1.07.01l-5.53.62h0c-.97,0-1.71-.75-1.71-1.66,0-6.13,4.93-11.05,10.98-11.05h40.75c6.05,0,10.98,4.93,10.98,10.98,0,.96-.78,1.74-1.74,1.74h-14.19l-5.34,1.64c-.8.25-1.62.37-2.45.37ZM363.07,442.13h.1s16.38,1.96,16.38,1.96c1.03.12,2.05.03,3.04-.27l5.56-1.68h14.26c.41,0,.74-.33.74-.74,0-5.5-4.48-9.98-9.98-9.98h-40.75c-5.5,0-9.98,4.48-9.98,9.98,0,.44.3.74.66.74l5.47-.62c.44-.05.89-.05,1.33-.01l.1.02,6.16,1.93c.74.23,1.52.24,2.27.02l4.63-1.35Z" style="fill: #fff;"/>
    </g>
  </g>
  <g id="Puff">
    <path d="M162.93,285.68c-.2,0-.4-.06-.57-.18-.45-.32-.56-.94-.24-1.39l28.4-40.39c.32-.45.94-.56,1.39-.24.45.32.56.94.24,1.39l-28.4,40.39c-.19.28-.5.42-.82.42Z"/>
    <path d="M213.89,328.65c-.28,0-.56-.12-.75-.34-.36-.42-.32-1.05.1-1.41l45.11-39.41c.42-.36,1.05-.32,1.41.1.36.42.32,1.05-.1,1.41l-45.11,39.41c-.19.17-.42.25-.66.25Z"/>
    <path d="M236.45,370.07c-.46,0-.88-.33-.98-.8-.11-.54.24-1.07.78-1.18l33.5-6.9c.54-.11,1.07.24,1.18.78.11.54-.24,1.07-.78,1.18l-33.5,6.9c-.07.01-.14.02-.2.02Z"/>
    <path d="M269.95,465.65s-.08,0-.12,0l-20.97-2.51c-.55-.07-.94-.56-.87-1.11.07-.55.57-.94,1.11-.87l20.97,2.51c.55.07.94.56.87,1.11-.06.51-.49.88-.99.88Z"/>
    <path d="M248.98,568.62c-.24,0-.49-.09-.68-.27l-30.91-28.61c-.41-.38-.43-1.01-.05-1.41.37-.41,1.01-.43,1.41-.05l30.91,28.61c.41.38.43,1.01.05,1.41-.2.21-.47.32-.73.32Z"/>
    <path d="M167.94,593.82c-.5,0-.93-.37-.99-.87l-5.01-39.51c-.07-.55.32-1.05.87-1.12.55-.06,1.05.32,1.12.87l5.01,39.51c.07.55-.32,1.05-.87,1.12-.04,0-.09,0-.13,0Z"/>
    <path d="M90.25,603.93c-.16,0-.32-.04-.47-.12-.49-.26-.67-.87-.41-1.35l28.4-53.07c.26-.49.87-.67,1.35-.41.49.26.67.87.41,1.35l-28.4,53.07c-.18.34-.53.53-.88.53Z"/>
    <path d="M27.6,524.97c-.47,0-.88-.33-.98-.8-.11-.54.24-1.07.78-1.18l40.93-8.35c.54-.11,1.07.24,1.18.78s-.24,1.07-.78,1.18l-40.93,8.35c-.07.01-.13.02-.2.02Z"/>
    <path d="M61.85,448.39h-.02l-37.59-.65c-.55,0-.99-.46-.98-1.02,0-.55.42-1.01,1.02-.98l37.59.65c.55,0,.99.46.98,1.02,0,.55-.46.98-1,.98Z"/>
    <path d="M72.71,383.71c-.11,0-.22-.02-.33-.06l-48.45-17.08c-.52-.18-.79-.75-.61-1.28.18-.52.76-.79,1.28-.61l48.45,17.08c.52.18.79.75.61,1.28-.14.41-.53.67-.94.67Z"/>
    <path d="M83.57,328.65c-.19,0-.37-.05-.54-.16l-40.52-26.25c-.46-.3-.6-.92-.3-1.38s.92-.6,1.38-.3l40.52,26.25c.46.3.6.92.3,1.38-.19.3-.51.46-.84.46Z"/>
    <path d="M118.66,295.23c-.36,0-.7-.19-.88-.53l-28.4-52.72c-.26-.49-.08-1.09.41-1.35.49-.26,1.09-.08,1.35.41l28.4,52.72c.26.49.08,1.09-.41,1.35-.15.08-.31.12-.47.12Z"/>
    <g>
      <polygon points="134.24 287.18 140.52 293.75 148.71 289.8 144.4 297.81 150.68 304.37 141.74 302.75 137.43 310.76 136.21 301.75 127.27 300.13 135.46 296.18 134.24 287.18" style="fill: #df0d0b;"/>
      <path d="M137.14,312.35l-1.38-10.17-10.1-1.83,9.25-4.45-1.38-10.17,7.09,7.42,9.25-4.45-4.86,9.04,7.09,7.42-10.1-1.83-4.86,9.04ZM128.87,299.91l7.79,1.41,1.06,7.84,3.75-6.97,7.79,1.41-5.47-5.72,3.75-6.97-7.13,3.43-5.47-5.72,1.06,7.84-7.13,3.43Z"/>
    </g>
    <g>
      <polygon points="219.63 281.8 225.2 284.7 229.68 280.3 228.64 286.5 234.21 289.4 228 290.32 226.96 296.51 224.16 290.89 217.95 291.82 222.43 287.42 219.63 281.8" style="fill: #df0d0b;"/>
      <path d="M227.2,298.11l-3.32-6.67-7.37,1.1,5.32-5.22-3.32-6.67,6.61,3.44,5.32-5.22-1.23,7.35,6.61,3.44-7.37,1.1-1.23,7.35ZM224.45,290.35l2.27,4.57.84-5.03,5.05-.75-4.53-2.36.84-5.03-3.64,3.58-4.53-2.36,2.27,4.57-3.64,3.58,5.05-.75Z"/>
    </g>
    <g>
      <polygon points="96.48 500.74 98.34 504.35 102.35 503.7 99.49 506.59 101.35 510.2 97.72 508.37 94.86 511.25 95.48 507.24 91.85 505.41 95.86 504.76 96.48 500.74" style="fill: #df0d0b;"/>
      <path d="M94.13,512.7l.8-5.18-4.68-2.36,5.17-.84.8-5.18,2.4,4.66,5.17-.84-3.69,3.72,2.39,4.66-4.68-2.36-3.69,3.72ZM93.45,505.65l2.58,1.3-.44,2.85,2.03-2.05,2.58,1.3-1.32-2.57,2.03-2.05-2.85.46-1.32-2.57-.44,2.85-2.85.46Z"/>
    </g>
    <g>
      <polygon points="85.38 364.21 91.44 367.29 96.25 362.48 95.19 369.2 101.25 372.28 94.54 373.35 93.48 380.07 90.38 374.01 83.67 375.08 88.47 370.27 85.38 364.21" style="fill: #df0d0b;"/>
      <path d="M93.73,381.67l-3.63-7.11-7.88,1.26,5.64-5.65-3.63-7.11,7.11,3.62,5.64-5.65-1.24,7.88,7.11,3.62-7.88,1.25-1.24,7.88ZM90.66,373.46l2.56,5.01.88-5.56,5.56-.89-5.02-2.55.88-5.56-3.98,3.98-5.02-2.55,2.56,5.01-3.98,3.98,5.56-.88Z"/>
    </g>
    <g>
      <polygon points="234.21 480.98 237.38 490.75 247.65 490.75 239.34 496.78 242.51 506.55 234.21 500.51 225.9 506.55 229.08 496.78 220.77 490.75 231.04 490.75 234.21 480.98" style="fill: #df0d0b;"/>
      <path d="M243.47,507.85l-9.26-6.72-9.26,6.72,3.54-10.88-9.26-6.73h11.44l3.54-10.88,3.54,10.88h11.44l-9.26,6.73,3.54,10.88ZM234.21,499.89l7.35,5.34-2.81-8.65,7.35-5.34h-9.09l-2.81-8.65-2.81,8.65h-9.09l7.35,5.34-2.81,8.65,7.35-5.34Z"/>
    </g>
  </g>
  <g id="Shirt">
    <g>
      <path d="M347.65,278.01v7.86s19.73,10.02,19.73,10.02c4.28,2.18,9.13,2.99,13.89,2.33h0c10.27-1.42,20.3-4.25,29.8-8.4l2.76-1.2,2.17-6.51-9.37,3.51c-16.59,3.05-34.04,2.21-50.07-3l-8.9-4.62Z" style="fill: #fff5c4;"/>
      <path d="M378.02,298.96c-3.76,0-7.46-.88-10.86-2.61l-20-10.16v-8.99l9.63,5c15.53,5.04,32.76,6.07,49.75,2.95l10.26-3.85-2.57,7.71-2.96,1.29c-9.54,4.17-19.61,7.01-29.93,8.44-1.11.15-2.22.23-3.32.23ZM348.15,285.57l19.45,9.88c4.21,2.14,8.91,2.93,13.6,2.28,10.23-1.42,20.21-4.23,29.67-8.36l2.55-1.12,1.76-5.3-8.39,3.14c-17.24,3.18-34.64,2.13-50.4-2.99l-8.25-4.27v6.74Z"/>
    </g>
    <g>
      <path d="M396.5,397.05c1.03-.63,2.3-.23,2.95.78.58.9,1.54,1.54,2.69,1.67l15.53,1.65c3.03.32,5.77-1.83,6.16-4.85l7.41-56.25c.03-.22.04-.44.04-.66v-45.79c0-2.3-1.03-4.48-2.8-5.94l-1.51-1.25c-2.52-2.08-6.1-2.3-8.85-.53l-4.29,2.76c-22.67,13.34-44.8,13.97-66.18-2.75l-4.22,1.35-36.16,38.94c-9.38,11.77-18.04,22.47-24.98,30.54-1.05,1.23-1.7,2.74-1.87,4.35l-.33,3.1c-.19,1.83.45,3.65,1.73,4.97,4.75,4.88,9.42,9.1,14.68,12.63,2.36,1.58,5.49,1.44,7.68-.38,6.74-5.58,13.53-12.16,20.35-19.44,1.3-1.39,2.69-2.69,4.2-3.85,3.69-2.83,7.06-4.94,10-6.03,2.5-.93,4.53-2.83,5.44-5.34l5.23-14.42,7.95-4.84c1.87-1.14,4.21.47,3.81,2.63-4.1,19.12-5.96,36.35-8.28,57.15-1.8,16.16-5.87,29.75-9.03,39.74-1.14,3.6.02,7.52,2.91,9.93l3.09,2.58c1.5,1.26,3.43,1.88,5.39,1.74l47.22-3.34c2.51-.18,4.23-2.62,3.16-4.35l-7.03-25-1.72-6.5c-.56-1.55-.77-3.21-.59-4.86l.22-.13Z" style="fill: #151100;"/>
      <path d="M354.7,441.75c-1.89,0-3.7-.66-5.16-1.88l-3.09-2.58c-3.06-2.56-4.26-6.67-3.06-10.47,3.68-11.66,7.32-24.54,9.01-39.65l.2-1.79c2.21-19.76,4.11-36.82,8.09-55.42.15-.79-.18-1.57-.85-2.03-.67-.46-1.52-.49-2.21-.06l-7.8,4.75-5.17,14.25c-.94,2.58-3.03,4.64-5.73,5.64-2.74,1.02-5.97,2.97-9.87,5.96-1.39,1.07-2.74,2.31-4.14,3.8-7.32,7.8-13.99,14.18-20.4,19.48-2.34,1.94-5.74,2.11-8.28.41-4.77-3.2-9.33-7.11-14.76-12.69-1.4-1.44-2.08-3.39-1.87-5.37l.33-3.1c.18-1.72.87-3.32,1.99-4.62,6.12-7.13,14.06-16.83,24.97-30.53l36.27-39.06,4.6-1.47.21.16c20.29,15.87,41.76,16.75,65.62,2.71l4.28-2.75c2.95-1.89,6.74-1.66,9.44.57l1.51,1.25c1.89,1.56,2.98,3.87,2.98,6.33v45.79c0,.24-.02.48-.05.72l-7.41,56.25c-.44,3.32-3.37,5.64-6.71,5.29l-15.53-1.65c-1.26-.13-2.38-.83-3.06-1.9-.53-.82-1.5-1.09-2.27-.62h0c-.12,1.48.08,3,.58,4.39l1.74,6.54,7.01,24.93c.48.83.48,1.83,0,2.77-.65,1.28-2.06,2.17-3.59,2.28l-47.22,3.34c-.19.01-.39.02-.58.02ZM358.69,326.57c.6,0,1.2.18,1.72.54,1,.69,1.48,1.86,1.26,3.05-3.98,18.56-5.88,35.6-8.08,55.33l-.2,1.79c-1.7,15.19-5.35,28.12-9.05,39.84-1.08,3.41,0,7.1,2.75,9.4l3.08,2.58c1.41,1.18,3.2,1.77,5.03,1.63l47.22-3.34c1.18-.08,2.27-.77,2.77-1.74.19-.38.45-1.12,0-1.86l-.06-.13-7.03-25-1.72-6.51c-.57-1.57-.79-3.33-.6-5.04l.03-.24.43-.26c1.22-.75,2.82-.34,3.63.94.52.81,1.36,1.34,2.32,1.44l15.53,1.65c2.78.29,5.25-1.65,5.62-4.42l7.41-56.25c.03-.2.04-.39.04-.59v-45.79c0-2.16-.95-4.18-2.62-5.56l-1.51-1.25c-2.36-1.95-5.68-2.15-8.26-.49l-4.29,2.76c-24.19,14.23-45.95,13.38-66.55-2.62l-3.85,1.23-36.07,38.84c-10.89,13.68-18.83,23.39-24.96,30.53-.99,1.15-1.6,2.56-1.75,4.08l-.33,3.1c-.18,1.68.4,3.35,1.59,4.57,5.39,5.53,9.89,9.4,14.6,12.56,2.17,1.46,5.08,1.31,7.09-.35,6.37-5.28,13.02-11.62,20.31-19.4,1.43-1.53,2.83-2.81,4.26-3.91,3.98-3.05,7.29-5.05,10.13-6.1,2.43-.9,4.3-2.74,5.14-5.04l5.29-14.58,8.1-4.93c.49-.3,1.04-.45,1.58-.45Z"/>
    </g>
    <path d="M396.98,397.16l-.97-.22c5.47-23.91,4.14-44.09,3.07-60.3-.4-6.09-.78-11.85-.73-16.97.02-1.74,2.69-3.86,6.18-6.44,1.18-.88,2.65-1.96,2.88-2.35v-.69c.53,0,.86.17.98.52.23.71-.66,1.41-3.26,3.34-2.29,1.7-5.76,4.26-5.78,5.64-.05,5.09.33,10.82.73,16.9,1.07,16.28,2.41,36.54-3.09,60.59Z"/>
  </g>
  <g id="HotSpots">
    <g id="HotspotNoedlager">
      <circle id="Noedlager" cx="528.31" cy="430.92" r="28.59" style="fill: #df0d0b;"/>
      <path d="M528.31,460.02c-16.04,0-29.09-13.05-29.09-29.09s13.05-29.09,29.09-29.09,29.09,13.05,29.09,29.09-13.05,29.09-29.09,29.09ZM528.31,402.83c-15.49,0-28.09,12.6-28.09,28.09s12.6,28.09,28.09,28.09,28.09-12.6,28.09-28.09-12.6-28.09-28.09-28.09Z"/>
    </g>
    <g id="HotspotAirtag">
      <circle id="Airtag" cx="312.47" cy="450.22" r="28.59" style="fill: #df0d0b;"/>
      <path d="M312.47,479.32c-16.04,0-29.09-13.05-29.09-29.09s13.05-29.09,29.09-29.09,29.09,13.05,29.09,29.09-13.05,29.09-29.09,29.09ZM312.47,422.13c-15.49,0-28.09,12.6-28.09,28.09s12.6,28.09,28.09,28.09,28.09-12.6,28.09-28.09-12.6-28.09-28.09-28.09Z"/>
    </g>
    <g id="HotspotReb">
      <circle id="Reb" cx="147.25" cy="216.7" r="28.59" style="fill: #df0d0b;"/>
      <path d="M147.25,245.79c-16.04,0-29.09-13.05-29.09-29.09s13.05-29.09,29.09-29.09,29.09,13.05,29.09,29.09-13.05,29.09-29.09,29.09ZM147.25,188.61c-15.49,0-28.09,12.6-28.09,28.09s12.6,28.09,28.09,28.09,28.09-12.6,28.09-28.09-12.6-28.09-28.09-28.09Z"/>
    </g>
  </g>
</svg>