<?xml version="1.0" encoding="UTF-8"?>
<svg id="Bagpack" xmlns="http://www.w3.org/2000/svg" viewBox="0 0 92.65 133.09">
  <g>
    <rect x="1" y="17.61" width="82.3" height="114.48" rx="25.5" ry="25.5" style="fill: #d23f00;"/>
    <path d="M57.8,133.09h-31.3c-14.61,0-26.5-11.89-26.5-26.5v-63.49c0-14.61,11.89-26.5,26.5-26.5h31.3c14.61,0,26.5,11.89,26.5,26.5v63.49c0,14.61-11.89,26.5-26.5,26.5ZM26.5,18.61c-13.51,0-24.5,10.99-24.5,24.5v63.49c0,13.51,10.99,24.5,24.5,24.5h31.3c13.51,0,24.5-10.99,24.5-24.5v-63.49c0-13.51-10.99-24.5-24.5-24.5h-31.3Z"/>
  </g>
  <g>
    <rect x="11.3" y="92.29" width="61.71" height="29.52" rx="14.09" ry="14.09" style="fill: #df880b;"/>
    <path d="M58.93,122.3H25.39c-8.04,0-14.59-6.54-14.59-14.59v-1.34c0-8.04,6.54-14.59,14.59-14.59h33.54c8.04,0,14.59,6.54,14.59,14.59v1.34c0,8.04-6.54,14.59-14.59,14.59ZM25.39,89.5c-7.49,0-13.59,9.38-13.59,16.87v1.34c0,7.49,6.09,13.59,13.59,13.59h33.54c7.49,0,13.59-6.09,13.59-13.59v-1.34c0-7.49-6.09-16.87-13.59-16.87H25.39Z"/>
  </g>
  <path d="M76.18,50.72l-1-.04c.19-4.12-.6-10.14-5.42-15.37-5.52-6.01-14.82-9.31-27.63-9.81-10.91-.43-20.11,2.43-25.9,8.05-4.5,4.37-6.74,10.14-6.67,17.15h-1c-.07-7.29,2.27-13.3,6.97-17.87,5.98-5.81,15.45-8.77,26.63-8.33,13.09.51,22.62,3.92,28.33,10.13,3.94,4.28,5.95,10,5.68,16.09Z"/>
  <g>
    <path d="M57.13,16.11h-29.97c-2.99,0-5.41-2.43-5.41-5.41v-1.38c0-2.95,2.37-5.36,5.31-5.41C36.49.04,46.64.04,57.22,3.9c2.94.05,5.32,2.46,5.32,5.41v1.38c0,2.98-2.43,5.41-5.41,5.41ZM27.17,4.89c-2.43,0-4.41,1.98-4.41,4.41v1.38c0,2.43,1.98,4.41,4.41,4.41h29.97c2.43,0,4.41-1.98,4.41-4.41v-1.38c0-2.43-1.98-4.41-4.41-4.41l-.17-.03c-10.41-3.81-20.37-3.81-29.61,0l-.19.04Z"/>
    <path d="M57.13,17.11h-29.97c-3.54,0-6.41-2.88-6.41-6.41v-1.38c0-3.45,2.67-6.24,6.1-6.41,9.57-3.87,19.85-3.87,30.56,0,3.45.15,6.13,2.95,6.13,6.41v1.38c0,3.54-2.88,6.41-6.41,6.41ZM41.71,1c-5.01,0-9.87.95-14.56,2.86l-.17.04c-2.93.1-5.23,2.48-5.23,5.41v1.38c0,2.98,2.43,5.41,5.41,5.41h29.97c2.99,0,5.41-2.43,5.41-5.41v-1.38c0-2.89-2.35-5.32-5.25-5.41l-.16-.03c-5.27-1.91-10.42-2.87-15.44-2.87ZM57.13,15.11h-29.97c-2.43,0-4.41-1.98-4.41-4.41v-1.38c0-2.43,1.98-4.41,4.41-4.41l.19-.04c9.24-3.81,19.2-3.8,29.61,0l.17.03c2.43,0,4.41,1.98,4.41,4.41v1.38c0,2.43-1.98,4.41-4.41,4.41ZM27.17,5.89c-1.88,0-3.41,1.53-3.41,3.41v1.38c0,1.88,1.53,3.41,3.41,3.41h29.97c1.88,0,3.41-1.53,3.41-3.41v-1.38c0-1.88-1.53-3.41-3.41-3.41l-.35-.03-.17-.06c-10.16-3.72-19.88-3.73-28.88-.02l-.37.11h-.2Z"/>
  </g>
  <g>
    <rect x="3.25" y="47.31" width="5.97" height="2.27"/>
    <path d="M9.72,50.08H2.75v-3.27h6.97v3.27ZM3.75,49.08h4.97v-1.27H3.75v1.27Z"/>
  </g>
  <rect x="22.93" y="98.5" width="39.8" height="1"/>
  <g>
    <rect x="24.71" y="99" width="2.01" height="4.25"/>
    <path d="M27.23,103.75h-3.01v-5.25h3.01v5.25ZM25.21,102.75h1.01v-3.25h-1.01v3.25Z"/>
  </g>
  <g>
    <path d="M49.31,111.97h14.98c0,2.96-2.4,5.37-5.37,5.37h-9.61v-5.37h0Z" style="fill: #df0d0b;"/>
    <path d="M58.93,117.83h-10.12v-6.37h15.98v.5c0,3.23-2.63,5.87-5.87,5.87ZM49.81,116.83h9.12c2.51,0,4.59-1.92,4.84-4.37h-13.96v4.37Z"/>
  </g>
  <rect x="84.3" y="81.45" width="8.35" height="28.93"/>
  <path d="M42.15,81.95c-14.54,0-25.93-4.64-25.93-10.56s11.39-10.56,25.93-10.56,25.93,4.64,25.93,10.56-11.39,10.56-25.93,10.56ZM42.15,61.83c-13.52,0-24.93,4.38-24.93,9.56s11.42,9.56,24.93,9.56,24.93-4.38,24.93-9.56-11.42-9.56-24.93-9.56Z"/>
  <g>
    <path d="M30.22,73.64h-1.24l-2.24-3.62c-.13-.21-.22-.37-.27-.48h-.02c.02.2.03.51.03.93v3.17h-1.16v-5.77h1.32l2.16,3.51c.1.16.19.32.27.47h.01c-.02-.13-.03-.4-.03-.79v-3.19h1.16v5.77Z"/>
    <path d="M33.2,73.74c-.65,0-1.16-.19-1.53-.58s-.56-.91-.56-1.57.19-1.21.58-1.6c.38-.38.9-.58,1.56-.58s1.15.19,1.52.58.55.89.55,1.53c0,.68-.19,1.22-.57,1.62-.38.4-.89.6-1.55.6ZM33.23,70.39c-.28,0-.5.1-.66.31-.16.21-.24.5-.24.88,0,.79.3,1.19.9,1.19s.86-.41.86-1.22c0-.77-.29-1.15-.87-1.15Z"/>
    <path d="M38.63,70.67c-.14-.08-.31-.12-.5-.12-.26,0-.46.1-.61.3-.15.2-.22.48-.22.83v1.97h-1.2v-4.12h1.2v.76h.01c.19-.56.53-.84,1.02-.84.13,0,.22.02.3.05v1.17Z"/>
    <path d="M41.75,73.59c-.18.1-.44.15-.8.15-.84,0-1.27-.46-1.27-1.4v-1.89h-.63v-.94h.63v-.89l1.19-.36v1.25h.87v.94h-.87v1.67c0,.43.16.64.48.64.13,0,.26-.04.39-.12v.94Z"/>
    <path d="M46.15,73.64h-1.19v-2.34c0-.6-.21-.91-.62-.91-.21,0-.38.08-.52.25-.13.17-.2.38-.2.64v2.35h-1.2v-6.1h1.2v2.59h.01c.29-.47.69-.71,1.19-.71.88,0,1.32.56,1.32,1.69v2.53Z"/>
    <path d="M48.44,71.65v1.99h-1.23v-5.77h1.92c1.37,0,2.05.61,2.05,1.84,0,.58-.2,1.05-.59,1.41-.39.36-.92.54-1.57.54h-.58ZM48.44,68.87v1.8h.48c.65,0,.98-.3.98-.91s-.33-.89-.98-.89h-.48Z"/>
    <path d="M54.91,73.64h-1.13v-.59h-.01c-.26.46-.65.69-1.16.69-.38,0-.67-.11-.89-.34s-.32-.53-.32-.91c0-.8.45-1.26,1.34-1.38l1.05-.15c0-.45-.23-.68-.69-.68s-.9.15-1.32.44v-.96c.17-.09.39-.17.68-.24.29-.07.55-.1.79-.1,1.11,0,1.66.59,1.66,1.76v2.46ZM53.78,71.97v-.28l-.71.1c-.39.05-.58.24-.58.56,0,.14.05.26.14.36.09.09.22.14.38.14.22,0,.41-.08.55-.25s.21-.37.21-.62Z"/>
    <path d="M58.79,73.49c-.27.17-.66.25-1.17.25-.6,0-1.08-.19-1.45-.58s-.55-.88-.55-1.48c0-.7.2-1.25.59-1.66s.92-.61,1.59-.61c.46,0,.79.06.99.19v1.08c-.25-.2-.53-.3-.84-.3-.34,0-.62.11-.82.32-.2.21-.3.51-.3.88s.1.65.29.86.46.31.79.31c.3,0,.59-.1.88-.3v1.02Z"/>
  </g>
  <path d="M41.56,79.85c-4.66,0-8.46-3.79-8.46-8.46s3.79-8.46,8.46-8.46,8.45,3.79,8.45,8.46-3.79,8.46-8.45,8.46ZM41.56,63.19c-4.52,0-8.21,3.68-8.21,8.21s3.68,8.21,8.21,8.21,8.2-3.68,8.2-8.21-3.68-8.21-8.2-8.21Z"/>
  <path d="M41.56,79.74c-2.37,0-4.29-3.75-4.29-8.35s1.92-8.35,4.29-8.35,4.29,3.75,4.29,8.35-1.92,8.35-4.29,8.35ZM41.56,63.29c-2.23,0-4.04,3.63-4.04,8.1s1.81,8.1,4.04,8.1,4.04-3.63,4.04-8.1-1.81-8.1-4.04-8.1Z"/>
  <path d="M41.54,79.74c-3.52,0-6.38-3.75-6.38-8.35s2.86-8.35,6.38-8.35,6.38,3.75,6.38,8.35-2.86,8.35-6.38,8.35ZM41.54,63.29c-3.38,0-6.13,3.63-6.13,8.1s2.75,8.1,6.13,8.1,6.13-3.63,6.13-8.1-2.75-8.1-6.13-8.1Z"/>
  <path d="M41.56,79.74c-1.35,0-2.4-3.67-2.4-8.35s1.06-8.35,2.4-8.35,2.4,3.67,2.4,8.35-1.06,8.35-2.4,8.35ZM41.56,63.29c-1.04,0-2.15,3.25-2.15,8.1s1.11,8.1,2.15,8.1,2.15-3.25,2.15-8.1-1.11-8.1-2.15-8.1Z"/>
  <path d="M6.12,61.83c-1.5,0-1.62-4.88-1.62-6.37s.12-6.37,1.62-6.37,1.62,4.88,1.62,6.37-.12,6.37-1.62,6.37ZM6.12,50.29c-.27.65-.62,2.41-.62,5.17s.35,4.52.62,5.17c.27-.65.62-2.41.62-5.17s-.35-4.52-.62-5.17Z"/>
  <path d="M23.96,113.48s-.07,0-.1,0c-.6-.08-.91-.78-.99-2.28-.06-1.16.02-2.67.23-4.25.21-1.59.53-3.06.9-4.16.47-1.42.95-2.01,1.55-1.94.6.08.9.78.99,2.28.06,1.16-.02,2.67-.23,4.25h0c-.31,2.32-.98,5.26-1.86,5.93-.18.14-.36.18-.5.18ZM25.4,102.04c-.35.6-.93,2.31-1.3,5.04-.37,2.73-.25,4.53-.08,5.21.35-.6.93-2.31,1.3-5.04h0c.37-2.73.25-4.53.08-5.21Z"/>
</svg>