<?xml version="1.0" encoding="UTF-8"?>
<svg id="Ikea" xmlns="http://www.w3.org/2000/svg" viewBox="0 0 210.49 79.94">
  <g>
    <rect x="2.31" y=".5" width="207.68" height="78.94" style="fill: #2637d3;"/>
    <path d="M210.49,79.94H1.81V0h208.68v79.94ZM2.81,78.94h206.68V1H2.81v77.94Z"/>
  </g>
  <ellipse cx="107.35" cy="39.72" rx="102.64" ry="38.25" style="fill: #fffa13;"/>
  <g>
    <path d="M44.87,61.15h-10.51V14.5h10.51v46.64Z" style="fill: #2637d3;"/>
    <path d="M94.24,61.15h-13.27l-13.6-20.26c-.26-.39-.67-1.25-1.24-2.57h-.16v22.83h-10.51V14.5h10.51v22.05h.16c.26-.61.69-1.47,1.3-2.6l12.88-19.45h12.52l-16.26,22.25,17.66,24.39Z" style="fill: #2637d3;"/>
    <path d="M126.67,61.15h-27.97V14.5h26.9v8.55h-16.39v10.38h15.25v8.52h-15.25v10.67h17.47v8.52Z" style="fill: #2637d3;"/>
    <path d="M176.11,61.15h-11.45l-3.32-10.38h-16.59l-3.29,10.38h-11.38l16.98-46.64h12.46l16.59,46.64ZM158.94,42.7l-5.01-15.68c-.37-1.17-.63-2.57-.78-4.2h-.26c-.11,1.37-.38,2.72-.81,4.07l-5.07,15.81h11.94Z" style="fill: #2637d3;"/>
  </g>
</svg>