<?xml version="1.0" encoding="UTF-8"?>
<svg id="Layer_1" xmlns="http://www.w3.org/2000/svg" version="1.1" viewBox="0 0 437.91 53.3">
  <!-- Generator: Adobe Illustrator 29.8.3, SVG Export Plug-In . SVG Version: 2.1.1 Build 3)  -->
  <g id="Layer_3">
    <g>
      <path d="M30.02,52.45H0V2.04h11.36v41.2h18.67v9.21h0Z"/>
      <path d="M80.69,49.49v-11.25c12.41,11.77,36.6.72,11.5-8.51-9.45-3.22-14.64-12.56-10.12-21.36,5.98-9.94,21.12-9.42,30.8-6.27v10.51c-4.99-4.13-22.99-6.57-19.76,3.85,4.58,5.39,13.75,5.91,18.42,11.34,14.43,21-15.28,29.76-30.83,21.69h0Z"/>
      <path d="M158.77,10.26h-14.38v41.17h-11.39V10.26h-14.31V1.01h40.08v9.25Z"/>
      <path d="M196.64,51.42h-11.36V1.01h11.36v50.41Z"/>
      <path d="M253.45,51.42h-11.46c-1.61-2.61-22.58-34.05-23.31-35.86h-.14c.54,4.72.18,30.35.28,35.86h-10.72V1.01h12.23c1.55,2.48,21.81,33.22,22.54,34.8h.14c-.57-3.75-.16-30.21-.28-34.8h10.72v50.41Z"/>
      <path d="M296.06,51.42h-11.36V1.01h11.36v50.41Z"/>
      <path d="M349.43,51.42h-14.34c-.85-1.46-16.26-23.62-16.03-24.68h-.18v24.68h-11.36V1.01h11.36v23.84h.18c0-1.23,14.4-22.27,15.33-23.84h13.54l-17.58,24.05,19.09,26.37h-.01Z"/>
      <path d="M437.91,51.42h-12.38l-3.59-11.21h-17.93l-3.55,11.21h-12.3L406.52,1.01h13.46l17.93,50.41h0ZM419.35,31.49c-.96-3.51-6.24-18-6.26-21.48h-.28c0,3.07-5.5,18.29-6.36,21.48h12.9Z"/>
    </g>
    <polygon points="365.89 30.7 382.38 30.7 382.38 21.49 365.89 21.49 365.89 10.27 383.61 10.27 383.61 1.03 354.53 1.03 354.53 21.63 359.87 21.63 359.87 30.84 354.53 30.84 354.53 51.44 384.77 51.44 384.77 42.23 365.89 42.23 365.89 30.7"/>
  </g>
  <g id="Lamp">
    <polygon points="47.13 17.51 43.12 15.57 43.99 13.77 47.3 15.37 53.12 13.62 58.79 15.38 62.87 13.74 63.62 15.59 58.88 17.5 53.11 15.71 47.13 17.51"/>
    <path d="M57.38,51.53h-8.51c-8.32-5.82-2.19-14.31-9.44-21.45C29.09,18.93,38.15-.55,53.31,0c15.13-.27,23.74,19.17,13.4,30.18-7.1,6.91-1.03,15.58-9.34,21.33h.01ZM49.62,49.53h6.99c6.82-5.1.98-12.98,8.6-20.66,9.19-9.8,1.54-27.11-11.93-26.86-13.49-.49-21.55,16.83-12.36,26.75,7.82,8.06,1.82,15.56,8.7,20.77Z"/>
    <rect x="50.12" y="49.53" width="6" height="3.78"/>
    <rect x="43.94" y="35.26" width="10.16" height=".75"/>
    <rect x="44.81" y="37.36" width="10.1" height=".75"/>
    <rect x="44.66" y="39.46" width="10.25" height=".75"/>
    <rect x="44.81" y="41.56" width="10.1" height=".75"/>
    <rect x="44.6" y="43.73" width="10.52" height=".75"/>
    <rect x="45.02" y="45.83" width="10.1" height=".75"/>
    <rect x="46.83" y="47.92" width="7.26" height=".75"/>
  </g>
</svg>