<?xml version="1.0" encoding="UTF-8"?>
<svg id="Head" xmlns="http://www.w3.org/2000/svg" viewBox="0 0 64.4 52.82">
  <g>
    <ellipse cx="12.8" cy="25.46" rx="11.74" ry="12.11" transform="translate(-9.02 7.14) rotate(-23.29)" style="fill: #fff5cf;"/>
    <path d="M17.99,37.51c-6.45,2.78-14.03-.37-16.89-7.01s.07-14.31,6.52-17.08,14.03.36,16.89,7.01-.07,14.31-6.52,17.08ZM8.41,15.26c-5.44,2.34-7.9,8.83-5.48,14.46s8.82,8.3,14.26,5.96,7.9-8.83,5.48-14.46c-2.42-5.63-8.82-8.3-14.26-5.96Z"/>
  </g>
  <g>
    <ellipse cx="49.37" cy="27.31" rx="11.74" ry="12.11" transform="translate(-6.77 21.74) rotate(-23.29)" style="fill: #fff5cf;"/>
    <path d="M54.55,39.35c-6.45,2.78-14.03-.36-16.89-7.01-2.86-6.64.07-14.31,6.52-17.08s14.03.37,16.89,7.01-.07,14.31-6.52,17.08ZM44.98,17.1c-5.44,2.34-7.9,8.83-5.48,14.46,2.42,5.63,8.82,8.3,14.26,5.96s7.9-8.83,5.48-14.46c-2.42-5.63-8.82-8.3-14.26-5.96Z"/>
  </g>
  <g>
    <ellipse cx="11.74" cy="30.32" rx="2.9" ry="2.48" transform="translate(-11.03 7.11) rotate(-23.29)"/>
    <path d="M13.11,33.52c-1.97.85-4.2.11-4.96-1.66s.23-3.89,2.2-4.74,4.2-.11,4.96,1.66-.23,3.89-2.2,4.74ZM11.15,28.96c-.96.41-1.48,1.36-1.16,2.11s1.37,1.03,2.33.61,1.48-1.36,1.16-2.11-1.37-1.03-2.33-.61Z"/>
  </g>
  <g>
    <circle cx="46.87" cy="32.42" r="2.78"/>
    <path d="M48.17,35.44c-1.66.72-3.6-.05-4.32-1.72s.06-3.6,1.72-4.32,3.6.06,4.32,1.72-.06,3.6-1.72,4.32ZM45.97,30.32c-1.16.5-1.69,1.84-1.2,3s1.85,1.69,3,1.2,1.69-1.84,1.19-3-1.84-1.69-3-1.2Z"/>
  </g>
  <path d="M29.09,10.18l-.13-.18c-2.55-3.61-5.93-8.41-11.7-8.95-3.21-.3-7.16.73-12.12,4.01l-.55-.83c14.67-9.72,21.26-.39,25.19,5.19l.13.18-.82.58Z"/>
  <path d="M63.59,14.76l-.13-.18c-3.97-5.62-9.96-14.13-23.83-4.94l-.55-.83c14.68-9.73,21.26-.39,25.2,5.19l.13.18-.82.58Z"/>
</svg>